<svg width="257" height="257" viewBox="0 0 257 257" fill="none" xmlns="http://www.w3.org/2000/svg">
<path d="M0 18.7591C0 8.39875 8.39875 0 18.7591 0H238.241C248.601 0 257 8.39875 257 18.7591V64.25H0V18.7591Z" fill="#9ADCFF"/>
<path d="M0 128.5H257V192.75H0V128.5Z" fill="#FFB2A6"/>
<path d="M0 192.75H257V238.241C257 248.601 248.601 257 238.241 257H18.7591C8.39874 257 0 248.601 0 238.241V192.75Z" fill="#FF8AAE"/>
<path d="M0 64.25H257V128.5H0V64.25Z" fill="#FFF89A"/>
<path d="M112.223 116.507C112.223 135.432 96.8816 150.773 77.9567 150.773C59.0317 150.773 43.69 135.432 43.69 116.507C43.69 97.5817 59.0317 82.24 77.9567 82.24C96.8816 82.24 112.223 97.5817 112.223 116.507Z" fill="white"/>
<path d="M212.453 116.507C212.453 135.432 197.112 150.773 178.187 150.773C159.262 150.773 143.92 135.432 143.92 116.507C143.92 97.5817 159.262 82.24 178.187 82.24C197.112 82.24 212.453 97.5817 212.453 116.507Z" fill="white"/>
<path d="M69.7131 192.364C66.5329 182.504 75.2187 173.903 85.5791 173.903H170.564C180.925 173.903 189.61 182.504 186.43 192.364C178.507 216.93 155.228 234.727 128.072 234.727C100.916 234.727 77.6365 216.93 69.7131 192.364Z" fill="white"/>
</svg>
